<svg width="72" height="24" viewBox="0 0 72 24" fill="none" xmlns="http://www.w3.org/2000/svg">
<g clip-path="url(#clip0_262_7262)">
<path d="M71.9999 6.86499H65.5674V23.5824H71.9999V6.86499Z" fill="white"/>
<path d="M16.6592 15.3372V15.1102C16.6592 10.0886 20.322 6.44727 25.789 6.44727C31.256 6.44727 34.9233 10.0795 34.9233 15.1102V15.3372C34.9233 20.3633 31.2605 24.0001 25.789 24.0001C20.3175 24.0001 16.6592 20.3633 16.6592 15.3372ZM28.4454 15.3372V15.1102C28.4454 12.5041 27.77 11.2146 25.8071 11.2146C23.8443 11.2146 23.1734 12.5041 23.1734 15.1102V15.3372C23.1734 17.9479 23.8488 19.2328 25.8071 19.2328C27.7655 19.2328 28.4454 17.9479 28.4454 15.3372Z" fill="white"/>
<path d="M36.4012 23.5823V6.86496H42.4983L42.6615 9.41205C43.1238 8.5077 43.8294 7.75083 44.6985 7.22693C45.5676 6.70302 46.5657 6.43295 47.58 6.44723C50.0234 6.44723 51.7596 7.31444 52.6299 9.41205C53.1715 8.48968 53.9489 7.72868 54.882 7.20753C55.8151 6.68637 56.8701 6.42392 57.9382 6.44723C62.213 6.44723 63.7271 9.21683 63.7271 13.1124V23.5823H57.3081V14.3065C57.3081 12.3406 56.5692 11.4416 55.4087 11.4416C54.0488 11.4416 53.2872 12.3723 53.2872 14.8196V23.5823H46.8547V14.3383C46.8547 12.4041 46.2427 11.4416 45.0414 11.4416C43.8401 11.4416 42.8519 12.277 42.8519 14.7242V23.5823H36.4012Z" fill="white"/>
<path d="M11.2785 6.86035H18.2233L12.9059 15.2236L18.2233 23.5868H11.2785L6.23309 15.2236C7.91036 12.4359 9.59216 9.64809 11.2785 6.86035Z" fill="white"/>
<path d="M6.43254 0H0V23.8366H6.43254V0Z" fill="white"/>
<path d="M72.0001 5.4756H65.5721V0H72.0001L70.9076 2.69694L72.0001 5.4756Z" fill="white"/>
</g>
<defs>
<clipPath id="clip0_262_7262">
<rect width="72" height="24" fill="white"/>
</clipPath>
</defs>
</svg>
