<svg width="54" height="18" viewBox="0 0 54 18" fill="none" xmlns="http://www.w3.org/2000/svg">
<g clip-path="url(#clip0_1108_2789)">
<path d="M53.9997 5.14868H49.1753V17.6867H53.9997V5.14868Z" fill="#121212"/>
<path d="M12.4946 11.5029V11.3326C12.4946 7.56646 15.2417 4.83545 19.3419 4.83545C23.4422 4.83545 26.1927 7.55965 26.1927 11.3326V11.5029C26.1927 15.2725 23.4456 18 19.3419 18C15.2383 18 12.4946 15.2725 12.4946 11.5029ZM21.3343 11.5029V11.3326C21.3343 9.37804 20.8277 8.41093 19.3555 8.41093C17.8834 8.41093 17.3802 9.37804 17.3802 11.3326V11.5029C17.3802 13.4609 17.8868 14.4246 19.3555 14.4246C20.8243 14.4246 21.3343 13.4609 21.3343 11.5029Z" fill="#121212"/>
<path d="M27.3008 17.6867V5.14872H31.8736L31.996 7.05904C32.3427 6.38078 32.8719 5.81312 33.5237 5.4202C34.1756 5.02727 34.9241 4.82472 35.6848 4.83542C37.5174 4.83542 38.8195 5.48583 39.4723 7.05904C39.8785 6.36726 40.4615 5.79651 41.1614 5.40565C41.8612 5.01478 42.6524 4.81794 43.4535 4.83542C46.6596 4.83542 47.7951 6.91262 47.7951 9.8343V17.6867H42.9809V10.7299C42.9809 9.25542 42.4268 8.58116 41.5564 8.58116C40.5364 8.58116 39.9653 9.27926 39.9653 11.1147V17.6867H35.1409V10.7537C35.1409 9.30307 34.6819 8.58116 33.7809 8.58116C32.8799 8.58116 32.1388 9.20776 32.1388 11.0432V17.6867H27.3008Z" fill="#121212"/>
<path d="M8.45885 5.14526H13.6674L9.6794 11.4177L13.6674 17.6901H8.45885L4.6748 11.4177C5.93275 9.32689 7.1941 7.23607 8.45885 5.14526Z" fill="#121212"/>
<path d="M4.8244 0H0V17.8774H4.8244V0Z" fill="#121212"/>
<path d="M54.0002 4.1067H49.1792V0H54.0002L53.1808 2.0227L54.0002 4.1067Z" fill="#121212"/>
</g>
<defs>
<clipPath id="clip0_1108_2789">
<rect width="54" height="18" fill="white"/>
</clipPath>
</defs>
</svg>
